<?xml version="1.0" encoding="UTF-8" standalone="no"?>
<svg viewBox="0 0 48 48" xmlns="http://www.w3.org/2000/svg" xmlns:xlink="http://www.w3.org/1999/xlink">
<defs>
<linearGradient id="linearGradient5060">
<stop offset="0"/>
<stop offset="1" stop-opacity="0"/>
</linearGradient>
<linearGradient gradientUnits="userSpaceOnUse" id="linearGradient6715" x2="0" y1="-150.69685" y2="327.66039">
<stop offset="0" stop-opacity="0"/>
<stop offset=".5"/>
<stop offset="1" stop-opacity="0"/>
</linearGradient>
<linearGradient id="linearGradient30685">
<stop offset="0" stop-color="#8d8d8d"/>
<stop offset="1" stop-color="#747474"/>
</linearGradient>
<linearGradient id="linearGradient30649">
<stop offset="0" stop-color="#858585"/>
<stop offset="1" stop-color="#5f5f5f"/>
</linearGradient>
<linearGradient gradientUnits="userSpaceOnUse" id="linearGradient30524" x1="14.20984" x2="39.06054" y1="5.95185" y2="41.4441">
<stop offset="0" stop-color="#fff"/>
<stop offset="1" stop-color="#fff" stop-opacity=".78698"/>
</linearGradient>
<linearGradient gradientUnits="userSpaceOnUse" id="linearGradient30701" x1="19.76007" x2="25.86492" y1="8.8125" y2="42.5625">
<stop offset="0" stop-color="#b8babc"/>
<stop offset=".37383" stop-color="#5d6062"/>
<stop offset="1" stop-color="#585b5d"/>
</linearGradient>
<linearGradient gradientUnits="userSpaceOnUse" id="linearGradient30667" x2="0" xlink:href="#linearGradient30649" y1="22.04824" y2="25.84894"/>
<linearGradient gradientUnits="userSpaceOnUse" id="linearGradient30673" x2="0" xlink:href="#linearGradient30649" y1="29.03092" y2="32.9642"/>
<linearGradient gradientUnits="userSpaceOnUse" id="linearGradient30679" x2="0" xlink:href="#linearGradient30649" y1="36.10199" y2="39.8143"/>
<linearGradient gradientUnits="userSpaceOnUse" id="linearGradient30691" x2="0" xlink:href="#linearGradient30685" y1="38.03639" y2="40.16139"/>
<linearGradient gradientUnits="userSpaceOnUse" id="linearGradient30693" x2="0" xlink:href="#linearGradient30685" y1="25.41139" y2="26.91139"/>
<linearGradient gradientUnits="userSpaceOnUse" id="linearGradient30709" x2="0" xlink:href="#linearGradient30685" y1="38.66139" y2="40.78639"/>
<linearGradient gradientUnits="userSpaceOnUse" id="linearGradient30711" x2="0" xlink:href="#linearGradient30685" y1="26.03639" y2="27.53639"/>
<radialGradient cx="605.71429" cy="486.64789" gradientTransform="matrix(-2.77439,0,0,1.96971,112.7623,-872.8854)" gradientUnits="userSpaceOnUse" id="radialGradient6719" r="117.14286" xlink:href="#linearGradient5060"/>
<radialGradient cx="605.71429" cy="486.64789" gradientTransform="matrix(2.77439,0,0,1.96971,-1891.633,-872.8854)" gradientUnits="userSpaceOnUse" id="radialGradient6717" r="117.14286" xlink:href="#linearGradient5060"/>
</defs>
<g transform="matrix(2.140526e-2,0,0,2.086758e-2,44.35111,41.4036)">
<path d="m-1559.2523-150.69685h1339.6335v478.35718h-1339.6335z" fill="url(#linearGradient6715)" opacity=".40206"/>
<path d="m-219.61876-150.68038v478.33079c142.87417.90045 345.40022-107.16966 345.40014-239.19618s-159.43682-239.13459-345.40014-239.13462z" fill="url(#radialGradient6717)" opacity=".40206"/>
<path d="m-1559.2523-150.68038v478.33079c-142.8742.90045-345.4002-107.16966-345.4002-239.19618s159.4368-239.13459 345.4002-239.13462z" fill="url(#radialGradient6719)" opacity=".40206"/>
</g>
<path d="m8.468,2.51043h33.06399a1.95793,1.95903 0 0,1 1.95793,1.95903v38.18607a1.95793,1.95903 0 0,1 -1.95793,1.95903h-33.06399a1.95793,1.95903 0 0,1 -1.95793-1.95903v-38.18607a1.95793,1.95903 0 0,1 1.95793-1.95903" display="block" fill="url(#linearGradient30701)" stroke="#343434"/>
<path d="m9.98222,5.11612h29.97489c1.13176,0 2.04288,1.37722 2.04288,3.08794v6.96134c0,3.31962-3.92831,4.4308-5.06007,4.4308h-23.94052c-1.13176,0-5.06007-1.50649-5.06007-4.4308v-6.96134c0-1.71072.91113-3.08794 2.04288-3.08794z" display="block" fill="#2e3436"/>
<path d="m10.91929,6h28.16142c1.06329,0 1.91929.856 1.91929,1.91929v4.32677c0,2.06329-3.69065,2.75394-4.75394,2.75394h-22.49213c-1.06329,0-4.75394-.93635-4.75394-2.75394v-4.32677c0-1.06329.856-1.91929 1.91929-1.91929z" display="block" fill="#babdb6"/>
<path d="m12.96156,7h23.82688a.71156,.74366 0 0,1 .71156.74366v3.51269a.71156,.74366 0 0,1 -.71156.74366h-23.82688a.71156,.74366 0 0,1 -.71156-.74366v-3.51269a.71156,.74366 0 0,1 .71156-.74366" display="block" fill="#777b5e"/>
<path d="m8.31474,3.52389h33.10536a.94114,.96161 0 0,1 .94114.96161v38.15401a.94114,.96161 0 0,1 -.94114.96161h-33.10536a.94114,.96161 0 0,1 -.94114-.96161v-38.15401a.94114,.96161 0 0,1 .94114-.96161" display="block" fill="none" opacity=".48734" stroke="url(#linearGradient30524)"/>
<path d="m34.66555,30.22551h3.88253a1.52544,1.38308 0 0,1 1.52544,1.38308v8.1056a1.52544,1.38308 0 0,1 -1.52544,1.38308h-3.88253a1.52544,1.38308 0 0,1 -1.52544-1.38308v-8.1056a1.52544,1.38308 0 0,1 1.52544-1.38308" display="block" fill="url(#linearGradient30709)" stroke="#7d7d7d"/>
<path d="m34.04055,29.60051h3.88253a1.52544,1.38308 0 0,1 1.52544,1.38308v8.1056a1.52544,1.38308 0 0,1 -1.52544,1.38308h-3.88253a1.52544,1.38308 0 0,1 -1.52544-1.38308v-8.1056a1.52544,1.38308 0 0,1 1.52544-1.38308" display="block" fill="url(#linearGradient30691)" stroke="#343434"/>
<g stroke="#707070" transform="translate(.70711,.70711)">
<path d="m11.44675,21.39718h3.16717a1.003,1.003 0 0,1 1.003,1.003v3.09681a1.003,1.003 0 0,1 -1.003,1.003h-3.16717a1.003,1.003 0 0,1 -1.003-1.003v-3.09681a1.003,1.003 0 0,1 1.003-1.003" display="block" fill="#737373"/>
<path d="m18.503,21.39718h3.16717a1.003,1.003 0 0,1 1.003,1.003v3.09681a1.003,1.003 0 0,1 -1.003,1.003h-3.16717a1.003,1.003 0 0,1 -1.003-1.003v-3.09681a1.003,1.003 0 0,1 1.003-1.003" display="block" fill="#737373"/>
<path d="m25.503,21.39718h3.16717a1.003,1.003 0 0,1 1.003,1.003v3.09681a1.003,1.003 0 0,1 -1.003,1.003h-3.16717a1.003,1.003 0 0,1 -1.003-1.003v-3.09681a1.003,1.003 0 0,1 1.003-1.003" display="block" fill="#737373"/>
<path d="m11.44675,28.31544h3.16717a1.003,1.003 0 0,1 1.003,1.003v3.09681a1.003,1.003 0 0,1 -1.003,1.003h-3.16717a1.003,1.003 0 0,1 -1.003-1.003v-3.09681a1.003,1.003 0 0,1 1.003-1.003" display="block" fill="#737373"/>
<path d="m18.503,28.31544h3.16717a1.003,1.003 0 0,1 1.003,1.003v3.09681a1.003,1.003 0 0,1 -1.003,1.003h-3.16717a1.003,1.003 0 0,1 -1.003-1.003v-3.09681a1.003,1.003 0 0,1 1.003-1.003" display="block" fill="#737373"/>
<path d="m25.503,28.31544h3.16717a1.003,1.003 0 0,1 1.003,1.003v3.09681a1.003,1.003 0 0,1 -1.003,1.003h-3.16717a1.003,1.003 0 0,1 -1.003-1.003v-3.09681a1.003,1.003 0 0,1 1.003-1.003" display="block" fill="#737373"/>
<path d="m11.44675,35.31544h3.16717a1.003,1.003 0 0,1 1.003,1.003v3.09681a1.003,1.003 0 0,1 -1.003,1.003h-3.16717a1.003,1.003 0 0,1 -1.003-1.003v-3.09681a1.003,1.003 0 0,1 1.003-1.003" display="block" fill="#737373"/>
<path d="m18.503,35.31544h3.16717a1.003,1.003 0 0,1 1.003,1.003v3.09681a1.003,1.003 0 0,1 -1.003,1.003h-3.16717a1.003,1.003 0 0,1 -1.003-1.003v-3.09681a1.003,1.003 0 0,1 1.003-1.003" display="block" fill="#737373"/>
<path d="m25.503,35.31544h3.16717a1.003,1.003 0 0,1 1.003,1.003v3.09681a1.003,1.003 0 0,1 -1.003,1.003h-3.16717a1.003,1.003 0 0,1 -1.003-1.003v-3.09681a1.003,1.003 0 0,1 1.003-1.003" display="block" fill="#737373"/>
</g>
<path d="m11.44675,21.39718h3.16717a1.003,1.003 0 0,1 1.003,1.003v3.09681a1.003,1.003 0 0,1 -1.003,1.003h-3.16717a1.003,1.003 0 0,1 -1.003-1.003v-3.09681a1.003,1.003 0 0,1 1.003-1.003" display="block" fill="url(#linearGradient30667)" stroke="#343434"/>
<path d="m18.503,21.39718h3.16717a1.003,1.003 0 0,1 1.003,1.003v3.09681a1.003,1.003 0 0,1 -1.003,1.003h-3.16717a1.003,1.003 0 0,1 -1.003-1.003v-3.09681a1.003,1.003 0 0,1 1.003-1.003" display="block" fill="url(#linearGradient30667)" stroke="#343434"/>
<path d="m25.503,21.39718h3.16717a1.003,1.003 0 0,1 1.003,1.003v3.09681a1.003,1.003 0 0,1 -1.003,1.003h-3.16717a1.003,1.003 0 0,1 -1.003-1.003v-3.09681a1.003,1.003 0 0,1 1.003-1.003" display="block" fill="url(#linearGradient30667)" stroke="#343434"/>
<path d="m11.44675,28.31544h3.16717a1.003,1.003 0 0,1 1.003,1.003v3.09681a1.003,1.003 0 0,1 -1.003,1.003h-3.16717a1.003,1.003 0 0,1 -1.003-1.003v-3.09681a1.003,1.003 0 0,1 1.003-1.003" display="block" fill="url(#linearGradient30673)" stroke="#343434"/>
<path d="m18.503,28.31544h3.16717a1.003,1.003 0 0,1 1.003,1.003v3.09681a1.003,1.003 0 0,1 -1.003,1.003h-3.16717a1.003,1.003 0 0,1 -1.003-1.003v-3.09681a1.003,1.003 0 0,1 1.003-1.003" display="block" fill="url(#linearGradient30673)" stroke="#343434"/>
<path d="m25.503,28.31544h3.16717a1.003,1.003 0 0,1 1.003,1.003v3.09681a1.003,1.003 0 0,1 -1.003,1.003h-3.16717a1.003,1.003 0 0,1 -1.003-1.003v-3.09681a1.003,1.003 0 0,1 1.003-1.003" display="block" fill="url(#linearGradient30673)" stroke="#343434"/>
<path d="m11.44675,35.31544h3.16717a1.003,1.003 0 0,1 1.003,1.003v3.09681a1.003,1.003 0 0,1 -1.003,1.003h-3.16717a1.003,1.003 0 0,1 -1.003-1.003v-3.09681a1.003,1.003 0 0,1 1.003-1.003" display="block" fill="url(#linearGradient30679)" stroke="#343434"/>
<path d="m18.503,35.31544h3.16717a1.003,1.003 0 0,1 1.003,1.003v3.09681a1.003,1.003 0 0,1 -1.003,1.003h-3.16717a1.003,1.003 0 0,1 -1.003-1.003v-3.09681a1.003,1.003 0 0,1 1.003-1.003" display="block" fill="url(#linearGradient30679)" stroke="#343434"/>
<path d="m25.503,35.31544h3.16717a1.003,1.003 0 0,1 1.003,1.003v3.09681a1.003,1.003 0 0,1 -1.003,1.003h-3.16717a1.003,1.003 0 0,1 -1.003-1.003v-3.09681a1.003,1.003 0 0,1 1.003-1.003" display="block" fill="url(#linearGradient30679)" stroke="#343434"/>
<path d="m34.47958,22.042h4.25447a1.33948,1.21447 0 0,1 1.33948,1.21447v3.83754a1.33948,1.21447 0 0,1 -1.33948,1.21447h-4.25447a1.33948,1.21447 0 0,1 -1.33948-1.21447v-3.83754a1.33948,1.21447 0 0,1 1.33948-1.21447" display="block" fill="url(#linearGradient30711)" stroke="#7d7d7d"/>
<path d="m33.85458,21.417h4.25447a1.33948,1.21447 0 0,1 1.33948,1.21447v3.83754a1.33948,1.21447 0 0,1 -1.33948,1.21447h-4.25447a1.33948,1.21447 0 0,1 -1.33948-1.21447v-3.83754a1.33948,1.21447 0 0,1 1.33948-1.21447" display="block" fill="url(#linearGradient30693)" stroke="#343434"/>
<path d="m28.4084,9.5623c.17353.04482.30512.12297.39476.23444s.13618.25111.13619.42235c0,.25513-.09769.44935-.29306.58267s-.48039.19824-.85504.19824c-.13216,0-.2649-.01092-.39821-.03275s-.26318-.05229-.39304-.09481v-.51199c.12412.06206.24709.10918.36891.14136s.24364.04655.36201.04654c.17583,0 .31029-.03045.40338-.09137s.14135-.14825.14136-.26203c0-.11722-.04827-.20571-.14481-.26548s-.23674-.09136-.42407-.09136h-.26547v-.42752h.27927c.16664,0 .29076-.02586.37235-.07757s.12239-.13274.12239-.23962c0-.09883-.03965-.17526-.11895-.22927s-.19135-.08102-.33615-.08102c-.10688,0-.21491.01207-.32409.0362s-.21778.05976-.32581.10688v-.48613c.13101-.03677.26088-.06436.38959-.08275s.25513-.02758.37925-.02758c.33443,0 .58439.05517.74988.16549s.24996.2741.24996.49475c0,.15055-.03965.2741-.11895.37063s-.19652.16262-.35167.20169m1.1705.72058h.62059v.66714h-.62059v-.66714m1.39116.20859h.58611v-1.66353l-.60163.12412v-.45165l.59818-.12412h.63093v2.11518h.58611v.45855h-1.79971v-.45855m3.34085-1.56872-.72747,1.07741h.72747v-1.07741m-.11033-.54647h.73781v1.62388h.36718v.48096h-.36718v.46889h-.62749v-.46889h-1.1412v-.56887l1.03087-1.53596"/>
<path d="m36.26816,33.70821v1.21298h1.20835v.5463h-1.20835v1.21298h-.55093v-1.21298h-1.20835v-.5463h1.20835v-1.21298h.55093" fill="#b8b8b8"/>
<path d="m35.32417,24.1708h1.45372v.67362h-1.45372v-.67362" fill="#b8b8b8"/>
</svg>
